FFmpeg version SVN-r25716, Copyright (c) 2000-2010 the FFmpeg developers  built on Nov 10 2010 12:23:18 with gcc 4.1.2 20080704 (Red Hat 4.1.2-48)  configuration: --enable-libmp3lame --enable-shared --disable-mmx --arch=x86_64  libavutil     50.33. 0 / 50.33. 0  libavcore      0.12. 1 /  0.12. 1  libavcodec    52.94. 4 / 52.94. 4  libavformat   52.84. 0 / 52.84. 0  libavdevice   52. 2. 2 / 52. 2. 2  libavfilter    1.59. 0 /  1.59. 0  libswscale     0.12. 0 /  0.12. 0Seems stream 0 codec frame rate differs from container frame rate: 1000.00 (1000/1) -> 5.00 (5/1)Input #0, mov,mp4,m4a,3gp,3g2,mj2, from '/RAID10/data/converted_video_files/25861.mov':  Duration: 00:00:03.00, start: 0.000000, bitrate: 8124 kb/s    Stream #0.0(eng): Video: svq3, yuvj420p, 1027x892, 8122 kb/s, 5 fps, 5 tbr, 1k tbn, 1k tbc[buffer @ 0x18a881e0] w:1027 h:892 pixfmt:yuvj420p[ffsink @ 0x18aa48e0] auto-inserting filter 'auto-inserted scaler 0' between the filter 'src' and the filter 'out'[scale @ 0x18aa4bd0] w:1027 h:892 fmt:yuvj420p -> w:1027 h:892 fmt:yuv420p flags:0x4Output #0, flv, to '/RAID10/data/converted_video_files/25861.flv':  Metadata:    encoder         : Lavf52.84.0    Stream #0.0(eng): Video: flv, yuv420p, 1027x892, q=2-31, 600 kb/s, 1k tbn, 24 tbcStream mapping:  Stream #0.0 -> #0.0Press [q] to stop encodingframe=   12 fps=  0 q=23.0 size=     443kB time=2.25 bitrate=1613.0kbits/s    frame=   15 fps=  0 q=29.0 Lsize=     485kB time=2.83 bitrate=1400.7kbits/s    video:484kB audio:0kB global headers:0kB muxing overhead 0.090771%